<?xml version="1.0" ?><!DOCTYPE svg  PUBLIC '-//W3C//DTD SVG 1.1//EN'  'http://www.w3.org/Graphics/SVG/1.1/DTD/svg11.dtd'><svg enable-background="new 0 0 100 100" height="100px" id="Layer_1" version="1.1" viewBox="0 0 100 100" width="100px" xml:space="preserve" xmlns="http://www.w3.org/2000/svg" xmlns:xlink="http://www.w3.org/1999/xlink"><g><path d="M38.967,6v88h22.066V6H38.967z M59.033,92H40.967v-3.732h1.866v-2h-1.866v-3.734h1.866v-2h-1.866v-3.732H45.7v-2h-4.733   v-3.734h1.866v-2h-1.866v-3.732h1.866v-2h-1.866v-3.732H45.7v-2h-4.733v-3.734h1.866v-2h-1.866v-3.733h1.866v-2h-1.866V42.4H45.7   v-2h-4.733v-3.733h1.866v-2h-1.866v-3.733h1.866v-2h-1.866v-3.733H45.7v-2h-4.733v-3.734h1.866v-2h-1.866v-3.733h1.866v-2h-1.866V8   h18.066V92z"/><path d="M53.344,15.882c1.737,0,3.15-1.413,3.15-3.15s-1.413-3.15-3.15-3.15s-3.15,1.413-3.15,3.15S51.606,15.882,53.344,15.882z    M53.344,11.582c0.635,0,1.15,0.516,1.15,1.15s-0.516,1.15-1.15,1.15s-1.15-0.516-1.15-1.15S52.709,11.582,53.344,11.582z"/></g></svg>
