<?xml version="1.0" ?><!DOCTYPE svg  PUBLIC '-//W3C//DTD SVG 1.1//EN'  'http://www.w3.org/Graphics/SVG/1.1/DTD/svg11.dtd'><svg enable-background="new 0 0 141.732 141.732" height="141.732px" id="Livello_1" version="1.1" viewBox="0 0 141.732 141.732" width="141.732px" xml:space="preserve" xmlns="http://www.w3.org/2000/svg" xmlns:xlink="http://www.w3.org/1999/xlink"><g id="Livello_26"><path d="M62.595,78.107c0-0.562,0.448-1.013,1.008-1.013h14.525c0.561,0,1.012,0.45,1.012,1.013c0,0.561-0.451,1.014-1.012,1.014   H63.603C63.045,79.12,62.595,78.667,62.595,78.107 M121.003,71.664H20.315V4.219h100.688V71.664L121.003,71.664z M141.024,78.603   c0-1.5-1.213-2.716-2.707-2.716v-0.193h-14.363c0.732-0.328,1.246-1.063,1.246-1.923V2.107c0-1.164-0.938-2.107-2.1-2.107H18.216   c-1.155,0-2.097,0.943-2.097,2.107V73.77c0,0.855,0.513,1.595,1.245,1.923H3.414v0.188c-1.494-0.001-2.706,1.217-2.706,2.719   s1.212,2.72,2.706,2.72h134.903C139.813,81.318,141.024,80.103,141.024,78.603"/></g><g id="Livello_1_1_"/></svg>